<svg width="30" height="30" viewBox="0 0 30 30" fill="none" xmlns="http://www.w3.org/2000/svg">
<rect width="30" height="30" rx="5" fill="#CCDAFF"/>
<path fill-rule="evenodd" clip-rule="evenodd" d="M12.1821 19.0241H17.1194C17.4915 19.0241 17.8001 18.7124 17.8001 18.3366C17.8001 17.9608 17.4915 17.6583 17.1194 17.6583H12.1821C11.81 17.6583 11.5014 17.9608 11.5014 18.3366C11.5014 18.7124 11.81 19.0241 12.1821 19.0241ZM15.2498 13.0749H12.1821C11.81 13.0749 11.5014 13.3866 11.5014 13.7624C11.5014 14.1383 11.81 14.4408 12.1821 14.4408H15.2498C15.6219 14.4408 15.9304 14.1383 15.9304 13.7624C15.9304 13.3866 15.6219 13.0749 15.2498 13.0749ZM21.7267 12.2734C21.9401 12.2709 22.1724 12.2683 22.3834 12.2683C22.6103 12.2683 22.7918 12.4516 22.7918 12.6808V20.0508C22.7918 22.3241 20.9676 24.1666 18.7167 24.1666H11.4923C9.13259 24.1666 7.2085 22.2324 7.2085 19.8491V9.96742C7.2085 7.69409 9.04183 5.83325 11.3017 5.83325H16.1483C16.3842 5.83325 16.5658 6.02575 16.5658 6.25492V9.20659C16.5658 10.8841 17.9362 12.2591 19.5971 12.2683C19.9851 12.2683 20.3271 12.2712 20.6264 12.2737C20.8592 12.2757 21.0662 12.2774 21.2489 12.2774C21.3781 12.2774 21.5456 12.2755 21.7267 12.2734ZM21.977 10.9354C21.231 10.9382 20.3515 10.9354 19.7189 10.929C18.7151 10.929 17.8883 10.0939 17.8883 9.08009V6.66375C17.8883 6.26867 18.363 6.0725 18.6343 6.35759C19.1255 6.87344 19.8006 7.58254 20.4725 8.28839C21.1427 8.99236 21.8097 9.69309 22.2883 10.1957C22.5533 10.4734 22.3591 10.9345 21.977 10.9354Z" fill="#0145FE"/>
</svg>
