<svg width="16" height="16" viewBox="0 0 16 16" fill="none" xmlns="http://www.w3.org/2000/svg">
<mask id="mask0_1534_4763" style="mask-type:luminance" maskUnits="userSpaceOnUse" x="1" y="0" width="14" height="16">
<path fill-rule="evenodd" clip-rule="evenodd" d="M1.33337 0.666809H14.9999V15.0035H1.33337V0.666809Z" fill="white"/>
</mask>
<g mask="url(#mask0_1534_4763)">
<path fill-rule="evenodd" clip-rule="evenodd" d="M9.14458 10.1942C9.94725 10.1942 10.6006 10.8429 10.6006 11.6402V13.6909C10.6006 13.8622 10.7379 13.9995 10.9139 14.0035H12.1846C13.1859 14.0035 13.9999 13.1996 13.9999 12.2116V6.39555C13.9953 6.05555 13.8333 5.73555 13.5553 5.52288L9.15992 2.01755C8.56992 1.55022 7.74459 1.55022 7.15259 2.01888L2.78725 5.52155C2.49859 5.74088 2.33659 6.06088 2.33325 6.40688V12.2116C2.33325 13.1996 3.14725 14.0035 4.14859 14.0035H5.43125C5.61192 14.0035 5.75858 13.8602 5.75858 13.6842C5.75858 13.6455 5.76325 13.6069 5.77125 13.5702V11.6402C5.77125 10.8476 6.42059 10.1996 7.21725 10.1942H9.14458ZM12.1846 15.0036H10.9019C10.1673 14.9862 9.60058 14.4096 9.60058 13.6909V11.6402C9.60058 11.3942 9.39592 11.1942 9.14458 11.1942H7.22059C6.97459 11.1956 6.77125 11.3962 6.77125 11.6402V13.6842C6.77125 13.7342 6.76459 13.7822 6.75059 13.8276C6.67859 14.4876 6.11458 15.0036 5.43125 15.0036H4.14859C2.59592 15.0036 1.33325 13.7509 1.33325 12.2116V6.40222C1.33992 5.73955 1.64525 5.13288 2.17259 4.73355L6.52925 1.23688C7.48858 0.476884 8.82525 0.476884 9.78258 1.23555L14.1706 4.73555C14.6859 5.12822 14.9913 5.73355 14.9999 6.38822V12.2116C14.9999 13.7509 13.7373 15.0036 12.1846 15.0036Z" fill="#2B303B"/>
</g>
</svg>
