<svg width="24" height="24" viewBox="0 0 24 24" fill="none" xmlns="http://www.w3.org/2000/svg">
<path d="M23.4694 22.2776L17.0974 15.9056C18.6286 14.0673 19.3922 11.7095 19.2293 9.32255C19.0663 6.93564 17.9894 4.70343 16.2226 3.09029C14.4558 1.47714 12.1351 0.607264 9.74322 0.661612C7.35137 0.715959 5.07255 1.69035 3.38083 3.38208C1.6891 5.07381 0.714708 7.35262 0.66036 9.74447C0.606013 12.1363 1.47589 14.457 3.08904 16.2239C4.70218 17.9907 6.93439 19.0676 9.3213 19.2305C11.7082 19.3934 14.0661 18.6299 15.9043 17.0986L22.2763 23.4706L23.4694 22.2776ZM2.37563 9.97063C2.37563 8.46873 2.821 7.00056 3.65541 5.75177C4.48982 4.50299 5.6758 3.52968 7.06338 2.95492C8.45096 2.38017 9.97781 2.22979 11.4508 2.52279C12.9239 2.8158 14.277 3.53904 15.339 4.60104C16.401 5.66305 17.1242 7.01612 17.4172 8.48917C17.7102 9.96221 17.5598 11.4891 16.9851 12.8766C16.4103 14.2642 15.437 15.4502 14.1882 16.2846C12.9395 17.119 11.4713 17.5644 9.96938 17.5644C7.95608 17.5622 6.02588 16.7614 4.60226 15.3378C3.17864 13.9141 2.37787 11.9839 2.37563 9.97063Z" fill="#323238"/>
</svg>
